HIERARCHY
ROOT joint_Root
{
	OFFSET 0.0 0.0 0.0
	CHANNELS 6 Xposition Yposition Zposition Zrotation Xrotation Yrotation 
	JOINT Hips
	{
		OFFSET 4.5925 91.4895 -427.239
		CHANNELS 6 Xposition Yposition Zposition Zrotation Xrotation Yrotation 
		JOINT Spine
		{
			OFFSET 15.7357 0.0 0.0
			CHANNELS 6 Xposition Yposition Zposition Zrotation Xrotation Yrotation 
			JOINT Chest
			{
				OFFSET 8.98455 -0.406207 0.0
				CHANNELS 6 Xposition Yposition Zposition Zrotation Xrotation Yrotation 
				JOINT Neck
				{
					OFFSET 16.3773 0.0 0.0
					CHANNELS 6 Xposition Yposition Zposition Zrotation Xrotation Yrotation 
					JOINT Head
					{
						OFFSET 6.45672 0.0 0.0
						CHANNELS 6 Xposition Yposition Zposition Zrotation Xrotation Yrotation 
						End Site
						{
							OFFSET 0.0 0.0 0.0
						}
					}
				}
				JOINT Shoulder_L
				{
					OFFSET 12.9942 -0.242716 4.98039
					CHANNELS 6 Xposition Yposition Zposition Zrotation Xrotation Yrotation 
					JOINT UpperArm_L
					{
						OFFSET 5.34809 0.0 0.0
						CHANNELS 6 Xposition Yposition Zposition Zrotation Xrotation Yrotation 
						JOINT LowerArm_L
						{
							OFFSET 24.3286 1.87007e-05 0.0
							CHANNELS 6 Xposition Yposition Zposition Zrotation Xrotation Yrotation 
							JOINT Hand_L
							{
								OFFSET 22.2916 0.0 0.0
								CHANNELS 6 Xposition Yposition Zposition Zrotation Xrotation Yrotation 
								End Site
								{
									OFFSET 0.0 0.0 0.0
								}
							}
						}
					}
				}
				JOINT Shoulder_R
				{
					OFFSET 12.9945 -0.242716 -4.98039
					CHANNELS 6 Xposition Yposition Zposition Zrotation Xrotation Yrotation 
					JOINT UpperArm_R
					{
						OFFSET -5.34813 0.0 0.0
						CHANNELS 6 Xposition Yposition Zposition Zrotation Xrotation Yrotation 
						JOINT LowerArm_R
						{
							OFFSET -24.3289 0.000322201 0.0
							CHANNELS 6 Xposition Yposition Zposition Zrotation Xrotation Yrotation 
							JOINT Hand_R
							{
								OFFSET -22.2915 -0.000108084 0.0
								CHANNELS 6 Xposition Yposition Zposition Zrotation Xrotation Yrotation 
								End Site
								{
									OFFSET 0.0 0.0 0.0
								}
							}
						}
					}
				}
			}
		}
		JOINT UpperLeg_L
		{
			OFFSET -2.19248 -6.46944 0.0
			CHANNELS 6 Xposition Yposition Zposition Zrotation Xrotation Yrotation 
			JOINT LowerLeg_L
			{
				OFFSET 39.0811 0.0 -1.23785e-05
				CHANNELS 6 Xposition Yposition Zposition Zrotation Xrotation Yrotation 
				JOINT Foot_L
				{
					OFFSET 40.9854 0.0 -1.26872e-05
					CHANNELS 6 Xposition Yposition Zposition Zrotation Xrotation Yrotation 
					JOINT Toes_L
					{
						OFFSET 11.7543 0.0 0.0
						CHANNELS 6 Xposition Yposition Zposition Zrotation Xrotation Yrotation 
						End Site
						{
							OFFSET 0.0 0.0 0.0
						}
					}
				}
			}
		}
		JOINT UpperLeg_R
		{
			OFFSET -2.19251 6.46944 0.0
			CHANNELS 6 Xposition Yposition Zposition Zrotation Xrotation Yrotation 
			JOINT LowerLeg_R
			{
				OFFSET -39.0811 -0.00228153 -0.0401928
				CHANNELS 6 Xposition Yposition Zposition Zrotation Xrotation Yrotation 
				JOINT Foot_R
				{
					OFFSET -40.9854 0.0 0.0
					CHANNELS 6 Xposition Yposition Zposition Zrotation Xrotation Yrotation 
					JOINT Toes_R
					{
						OFFSET -11.7543 0.0 0.0
						CHANNELS 6 Xposition Yposition Zposition Zrotation Xrotation Yrotation 
						End Site
						{
							OFFSET 0.0 0.0 0.0
						}
					}
				}
			}
		}
	}
}
MOTION
Frames:	4
Frame Time:	0.0333333
0.000000 0.000000 0.000000 0.000000 0.000000 -0.000000 -0.704430 90.232400 -0.912728 89.231400 -3.578470 11.144800 15.735700 0.000005 -0.000001 89.591800 78.560900 -89.274000 8.984550 -0.406207 -0.000000 15.112100 -0.140515 0.654808 16.377300 -0.000001 -0.000001 8.642630 -4.619660 -1.379820 6.456720 -0.000001 -0.000000 -2.649650 -4.532970 2.503530 12.994200 -0.242716 4.980390 -88.559400 -3.983730 -70.100600 5.348090 -0.000007 -0.000001 -77.932000 -28.878600 -95.302300 24.328600 0.000019 0.000005 31.524800 4.601810 -82.548200 22.291600 -0.000001 0.000005 14.484100 5.157490 3.763630 12.994500 -0.242716 -4.980390 88.825300 9.496950 -82.915600 -5.348130 -0.000001 -0.000004 -57.533500 35.513200 -21.290500 -24.328900 0.000322 -0.000009 1.689500 4.496750 -20.628600 -22.291500 -0.000108 -0.000004 16.626600 5.426060 -3.804480 -2.192480 -6.469440 -0.000000 -174.397000 -13.238800 -1.347510 39.081100 -0.000007 -0.000012 -0.223044 0.327152 34.285600 40.985400 -0.000006 -0.000013 -0.131167 2.662080 -71.408700 11.754300 -0.000000 0.000003 -0.000229 -0.002078 -16.655600 -2.192510 6.469440 -0.000001 174.026000 19.723400 179.763000 -39.081100 -0.002282 -0.040193 -0.211088 0.324107 33.483100 -40.985400 0.000008 0.000006 3.999890 12.272400 -71.748200 -11.754300 -0.000006 -0.000006 -0.002306 -0.032484 -17.894000
0.000000 0.000000 0.000000 0.000000 0.000000 -0.000000 -0.718280 90.236300 -0.943259 89.217300 -3.584300 11.126700 15.735700 0.000005 -0.000001 89.565600 78.543100 -89.270300 8.984550 -0.406207 -0.000000 15.147500 -0.152453 0.611224 16.377300 -0.000001 -0.000001 8.664400 -4.670580 -1.373210 6.456720 -0.000001 -0.000000 -2.716970 -4.612030 2.525410 12.994200 -0.242716 4.980390 -88.540000 -4.014660 -69.995600 5.348090 -0.000007 -0.000001 -78.381100 -28.714800 -95.578700 24.328600 0.000019 0.000005 31.470500 4.506440 -82.685200 22.291600 -0.000001 0.000005 14.654400 5.154320 3.839810 12.994500 -0.242716 -4.980390 88.826900 9.472250 -82.907200 -5.348130 -0.000001 -0.000004 -57.566000 35.603400 -21.283300 -24.328900 0.000322 -0.000009 1.671170 4.454150 -20.602000 -22.291500 -0.000108 -0.000004 16.607600 5.427320 -3.847250 -2.192480 -6.469440 -0.000000 -174.386000 -13.238900 -1.392490 39.081100 -0.000007 -0.000012 -0.222989 0.327052 34.287200 40.985400 -0.000006 -0.000013 -0.126702 2.681870 -71.383200 11.754300 -0.000000 0.000003 -0.000243 -0.002180 -16.659300 -2.192510 6.469440 -0.000001 174.066000 19.749300 179.724000 -39.081100 -0.002282 -0.040193 -0.210610 0.323479 33.475400 -40.985400 0.000008 0.000006 4.039900 12.258900 -71.730600 -11.754300 -0.000006 -0.000006 -0.002175 -0.030881 -17.828800
0.000000 0.000000 0.000000 0.000000 0.000000 -0.000000 -0.715361 90.243400 -0.959601 89.233500 -3.643000 11.156300 15.735700 0.000005 -0.000001 89.637300 78.529200 -89.377500 8.984550 -0.406207 -0.000000 15.175600 -0.126531 0.536883 16.377300 -0.000001 -0.000001 8.720730 -4.699740 -1.417530 6.456720 -0.000001 -0.000000 -2.666250 -4.665590 2.603990 12.994200 -0.242716 4.980390 -88.523200 -4.049220 -69.943200 5.348090 -0.000007 -0.000001 -78.608100 -28.637000 -95.708700 24.328600 0.000019 0.000005 31.316300 4.435700 -82.755400 22.291600 -0.000001 0.000005 14.657300 5.157670 3.759180 12.994500 -0.242716 -4.980390 88.823000 9.483330 -82.891900 -5.348130 -0.000001 -0.000004 -57.629400 35.616300 -21.196800 -24.328900 0.000322 -0.000009 1.667070 4.441520 -20.609100 -22.291500 -0.000108 -0.000004 16.645600 5.427860 -3.865690 -2.192480 -6.469440 -0.000000 -174.393000 -13.258300 -1.335370 39.081100 -0.000007 -0.000012 -0.222004 0.326159 34.242100 40.985400 -0.000006 -0.000013 -0.141824 2.639910 -71.362300 11.754300 -0.000000 0.000003 -0.000236 -0.002126 -16.657400 -2.192510 6.469440 -0.000001 174.044000 19.714300 179.747000 -39.081100 -0.002282 -0.040193 -0.209209 0.321680 33.449200 -40.985400 0.000008 0.000006 4.005150 12.318000 -71.693600 -11.754300 -0.000006 -0.000006 -0.002310 -0.032534 -17.896100
0.000000 0.000000 0.000000 0.000000 0.000000 -0.000000 -0.731503 90.243000 -0.962987 89.197300 -3.675160 11.155600 15.735700 0.000005 -0.000001 89.657200 78.539200 -89.407000 8.984550 -0.406207 -0.000000 15.155600 -0.119240 0.516664 16.377300 -0.000001 -0.000001 8.798050 -4.706270 -1.440510 6.456720 -0.000001 -0.000000 -2.442480 -4.682450 2.536990 12.994200 -0.242716 4.980390 -88.516100 -4.065750 -69.929100 5.348090 -0.000007 -0.000001 -78.573300 -28.641400 -95.699000 24.328600 0.000019 0.000005 31.363900 4.447550 -82.749700 22.291600 -0.000001 0.000005 14.660900 5.156510 3.787030 12.994500 -0.242716 -4.980390 88.823100 9.455440 -82.872300 -5.348130 -0.000001 -0.000004 -57.702000 35.645300 -21.134100 -24.328900 0.000322 -0.000009 1.671480 4.454890 -20.602400 -22.291500 -0.000108 -0.000004 16.622400 5.427370 -3.849010 -2.192480 -6.469440 -0.000000 -174.338000 -13.283900 -1.347690 39.081100 -0.000007 -0.000012 -0.222266 0.326266 34.264700 40.985400 -0.000006 -0.000013 -0.153172 2.642700 -71.365500 11.754300 -0.000000 0.000003 -0.000232 -0.002101 -16.656500 -2.192510 6.469440 -0.000001 174.102000 19.712500 179.745000 -39.081100 -0.002282 -0.040193 -0.206711 0.317932 33.446500 -40.985400 0.000008 0.000006 4.090800 12.302700 -71.709900 -11.754300 -0.000006 -0.000006 -0.002281 -0.032178 -17.881600
